<svg width="327" height="259" viewBox="0 0 327 259" fill="none" xmlns="http://www.w3.org/2000/svg">
<g clip-path="url(#clip0_683_1863)">
<path d="M94.3012 257.123C94.3012 256.104 95.1585 255.246 96.1765 255.246C97.1945 255.246 98.0518 256.104 98.0518 257.123C98.0518 258.142 97.1945 259 96.1765 259C95.1585 259 94.3012 258.142 94.3012 257.123ZM94.3012 249.616C94.3012 248.597 95.1585 247.739 96.1765 247.739C97.1945 247.739 98.0518 248.597 98.0518 249.616C98.0518 250.635 97.1945 251.493 96.1765 251.493C95.1585 251.493 94.3012 250.635 94.3012 249.616ZM94.3012 242.109C94.3012 241.09 95.1585 240.232 96.1765 240.232C97.1945 240.232 98.0518 241.09 98.0518 242.109C98.0518 243.127 97.1945 243.985 96.1765 243.985C95.1585 243.985 94.3012 243.127 94.3012 242.109ZM94.3012 234.601C94.3012 233.583 95.1585 232.725 96.1765 232.725C97.1945 232.725 98.0518 233.583 98.0518 234.601C98.0518 235.62 97.1945 236.478 96.1765 236.478C95.1585 236.478 94.3012 235.62 94.3012 234.601ZM94.3012 227.094C94.3012 226.075 95.1585 225.217 96.1765 225.217C97.1945 225.217 98.0518 226.075 98.0518 227.094C98.0518 228.113 97.1945 228.971 96.1765 228.971C95.1585 228.971 94.3012 228.113 94.3012 227.094ZM94.3012 219.587C94.3012 218.568 95.1585 217.71 96.1765 217.71C97.1945 217.71 98.0518 218.568 98.0518 219.587C98.0518 220.606 97.1945 221.464 96.1765 221.464C95.1585 221.464 94.3012 220.606 94.3012 219.587ZM94.3012 212.08C94.3012 211.061 95.1585 210.203 96.1765 210.203C97.1945 210.203 98.0518 211.061 98.0518 212.08C98.0518 213.099 97.1945 213.956 96.1765 213.956C95.1585 213.956 94.3012 213.099 94.3012 212.08ZM94.3012 204.572C94.3012 203.554 95.1585 202.696 96.1765 202.696C97.1945 202.696 98.0518 203.554 98.0518 204.572C98.0518 205.591 97.1945 206.449 96.1765 206.449C95.1585 206.449 94.3012 205.591 94.3012 204.572ZM94.3012 197.065C94.3012 196.046 95.1585 195.188 96.1765 195.188C97.1945 195.188 98.0518 196.046 98.0518 197.065C98.0518 198.084 97.1945 198.942 96.1765 198.942C95.1585 198.942 94.3012 198.084 94.3012 197.065ZM94.3012 189.558C94.3012 188.539 95.1585 187.681 96.1765 187.681C97.1945 187.681 98.0518 188.539 98.0518 189.558C98.0518 190.577 97.1945 191.435 96.1765 191.435C95.1585 191.435 94.3012 190.577 94.3012 189.558ZM94.3012 182.051C94.3012 181.032 95.1585 180.174 96.1765 180.174C97.1945 180.174 98.0518 181.032 98.0518 182.051C98.0518 183.07 97.1945 183.927 96.1765 183.927C95.1585 183.927 94.3012 183.07 94.3012 182.051ZM94.3012 174.543C94.3012 173.525 95.1585 172.667 96.1765 172.667C97.1945 172.667 98.0518 173.525 98.0518 174.543C98.0518 175.562 97.1945 176.42 96.1765 176.42C95.1585 176.42 94.3012 175.562 94.3012 174.543ZM94.3012 167.036C94.3012 166.017 95.1585 165.159 96.1765 165.159C97.1945 165.159 98.0518 166.017 98.0518 167.036C98.0518 168.055 97.1945 168.913 96.1765 168.913C95.1585 168.913 94.3012 168.055 94.3012 167.036ZM94.3012 159.529C94.3012 158.51 95.1585 157.652 96.1765 157.652C97.1945 157.652 98.0518 158.51 98.0518 159.529C98.0518 160.548 97.1945 161.406 96.1765 161.406C95.1585 161.406 94.3012 160.548 94.3012 159.529ZM94.3012 152.022C94.3012 151.003 95.1585 150.145 96.1765 150.145C97.1945 150.145 98.0518 151.003 98.0518 152.022C98.0518 153.041 97.1945 153.899 96.1765 153.899C95.1585 153.899 94.3012 153.041 94.3012 152.022ZM94.3012 144.514C94.3012 143.496 95.1585 142.638 96.1765 142.638C97.1945 142.638 98.0518 143.496 98.0518 144.514C98.0518 145.533 97.1945 146.391 96.1765 146.391C95.1585 146.391 94.3012 145.533 94.3012 144.514ZM94.3012 137.007C94.3012 135.988 95.1585 135.13 96.1765 135.13C97.1945 135.13 98.0518 135.988 98.0518 137.007C98.0518 138.026 97.1945 138.884 96.1765 138.884C95.1585 138.884 94.3012 138.026 94.3012 137.007ZM94.3012 129.5C94.3012 128.481 95.1585 127.623 96.1765 127.623C97.1945 127.623 98.0518 128.481 98.0518 129.5C98.0518 130.519 97.1945 131.377 96.1765 131.377C95.1585 131.377 94.3012 130.519 94.3012 129.5ZM94.3012 121.993C94.3012 120.974 95.1585 120.116 96.1765 120.116C97.1945 120.116 98.0518 120.974 98.0518 121.993C98.0518 123.012 97.1945 123.87 96.1765 123.87C95.1585 123.87 94.3012 123.012 94.3012 121.993ZM94.3012 114.485C94.3012 113.467 95.1585 112.609 96.1765 112.609C97.1945 112.609 98.0518 113.467 98.0518 114.485C98.0518 115.504 97.1945 116.362 96.1765 116.362C95.1585 116.362 94.3012 115.504 94.3012 114.485ZM94.3012 106.978C94.3012 105.959 95.1585 105.101 96.1765 105.101C97.1945 105.101 98.0518 105.959 98.0518 106.978C98.0518 107.997 97.1945 108.855 96.1765 108.855C95.1585 108.855 94.3012 107.997 94.3012 106.978ZM94.3012 99.471C94.3012 98.4521 95.1585 97.5942 96.1765 97.5942C97.1945 97.5942 98.0518 98.4521 98.0518 99.471C98.0518 100.49 97.1945 101.348 96.1765 101.348C95.1585 101.348 94.3012 100.49 94.3012 99.471ZM94.3012 91.9637C94.3012 90.9449 95.1585 90.0869 96.1765 90.0869C97.1945 90.0869 98.0518 90.9449 98.0518 91.9637C98.0518 92.9826 97.1945 93.8405 96.1765 93.8405C95.1585 93.8405 94.3012 92.9826 94.3012 91.9637ZM94.3012 84.4565C94.3012 83.4376 95.1585 82.5797 96.1765 82.5797C97.1945 82.5797 98.0518 83.4376 98.0518 84.4565C98.0518 85.4753 97.1945 86.3333 96.1765 86.3333C95.1585 86.3333 94.3012 85.4753 94.3012 84.4565ZM94.3012 76.9492C94.3012 75.9304 95.1585 75.0724 96.1765 75.0724C97.1945 75.0724 98.0518 75.9304 98.0518 76.9492C98.0518 77.9681 97.1945 78.8261 96.1765 78.8261C95.1585 78.8261 94.3012 77.9681 94.3012 76.9492ZM94.3012 69.442C94.3012 68.4232 95.1585 67.5652 96.1765 67.5652C97.1945 67.5652 98.0518 68.4232 98.0518 69.442C98.0518 70.4608 97.1945 71.3188 96.1765 71.3188C95.1585 71.3188 94.3012 70.4608 94.3012 69.442ZM233.717 257.123C233.717 256.104 234.574 255.246 235.592 255.246C236.61 255.246 237.467 256.104 237.467 257.123C237.467 258.142 236.61 259 235.592 259C234.521 259 233.663 258.196 233.717 257.123C233.663 257.123 233.663 257.123 233.717 257.123ZM233.717 249.616C233.717 248.597 234.574 247.739 235.592 247.739C236.61 247.739 237.467 248.597 237.467 249.616C237.467 250.635 236.61 251.493 235.592 251.493C234.521 251.493 233.663 250.688 233.717 249.616C233.663 249.616 233.663 249.616 233.717 249.616ZM233.717 242.109C233.717 241.09 234.574 240.232 235.592 240.232C236.61 240.232 237.467 241.09 237.467 242.109C237.467 243.127 236.61 243.985 235.592 243.985C234.521 243.985 233.663 243.181 233.717 242.109C233.663 242.109 233.663 242.109 233.717 242.109ZM233.717 234.601C233.717 233.583 234.574 232.725 235.592 232.725C236.61 232.725 237.467 233.583 237.467 234.601C237.467 235.62 236.61 236.478 235.592 236.478C234.521 236.478 233.663 235.674 233.717 234.601C233.663 234.601 233.663 234.601 233.717 234.601ZM233.717 227.094C233.717 226.075 234.574 225.217 235.592 225.217C236.61 225.217 237.467 226.075 237.467 227.094C237.467 228.113 236.61 228.971 235.592 228.971C234.521 228.971 233.663 228.167 233.717 227.094C233.663 227.094 233.663 227.094 233.717 227.094ZM233.717 219.587C233.717 218.568 234.574 217.71 235.592 217.71C236.61 217.71 237.467 218.568 237.467 219.587C237.467 220.606 236.61 221.464 235.592 221.464C234.521 221.464 233.663 220.659 233.717 219.587C233.663 219.587 233.663 219.587 233.717 219.587ZM233.717 212.08C233.717 211.061 234.574 210.203 235.592 210.203C236.61 210.203 237.467 211.061 237.467 212.08C237.467 213.099 236.61 213.956 235.592 213.956C234.521 213.956 233.663 213.152 233.717 212.08C233.663 212.08 233.663 212.08 233.717 212.08ZM233.717 204.572C233.717 203.554 234.574 202.696 235.592 202.696C236.61 202.696 237.467 203.554 237.467 204.572C237.467 205.591 236.61 206.449 235.592 206.449C234.521 206.449 233.663 205.645 233.717 204.572C233.663 204.572 233.663 204.572 233.717 204.572ZM233.717 197.065C233.717 196.046 234.574 195.188 235.592 195.188C236.61 195.188 237.467 196.046 237.467 197.065C237.467 198.084 236.61 198.942 235.592 198.942C234.521 198.942 233.663 198.138 233.717 197.065C233.663 197.065 233.663 197.065 233.717 197.065ZM233.717 189.558C233.717 188.539 234.574 187.681 235.592 187.681C236.61 187.681 237.467 188.539 237.467 189.558C237.467 190.577 236.61 191.435 235.592 191.435C234.521 191.435 233.663 190.63 233.717 189.558C233.663 189.558 233.663 189.558 233.717 189.558ZM233.717 182.051C233.717 181.032 234.574 180.174 235.592 180.174C236.61 180.174 237.467 181.032 237.467 182.051C237.467 183.07 236.61 183.927 235.592 183.927C234.521 183.927 233.663 183.123 233.717 182.051C233.663 182.051 233.663 182.051 233.717 182.051ZM233.717 174.543C233.717 173.525 234.574 172.667 235.592 172.667C236.61 172.667 237.467 173.525 237.467 174.543C237.467 175.562 236.61 176.42 235.592 176.42C234.521 176.42 233.663 175.616 233.717 174.543C233.663 174.543 233.663 174.543 233.717 174.543ZM233.717 167.036C233.717 166.017 234.574 165.159 235.592 165.159C236.61 165.159 237.467 166.017 237.467 167.036C237.467 168.055 236.61 168.913 235.592 168.913C234.521 168.913 233.663 168.109 233.717 167.036C233.663 167.036 233.663 167.036 233.717 167.036ZM233.717 159.529C233.717 158.51 234.574 157.652 235.592 157.652C236.61 157.652 237.467 158.51 237.467 159.529C237.467 160.548 236.61 161.406 235.592 161.406C234.521 161.406 233.663 160.601 233.717 159.529C233.663 159.529 233.663 159.529 233.717 159.529ZM233.717 152.022C233.717 151.003 234.574 150.145 235.592 150.145C236.61 150.145 237.467 151.003 237.467 152.022C237.467 153.041 236.61 153.899 235.592 153.899C234.521 153.899 233.663 153.094 233.717 152.022C233.663 152.022 233.663 152.022 233.717 152.022ZM233.717 144.514C233.717 143.496 234.574 142.638 235.592 142.638C236.61 142.638 237.467 143.496 237.467 144.514C237.467 145.533 236.61 146.391 235.592 146.391C234.521 146.391 233.663 145.587 233.717 144.514C233.663 144.514 233.663 144.514 233.717 144.514ZM233.717 137.007C233.717 135.988 234.574 135.13 235.592 135.13C236.61 135.13 237.467 135.988 237.467 137.007C237.467 138.026 236.61 138.884 235.592 138.884C234.521 138.884 233.663 138.08 233.717 137.007C233.663 137.007 233.663 137.007 233.717 137.007ZM233.717 129.5C233.717 128.481 234.574 127.623 235.592 127.623C236.61 127.623 237.467 128.481 237.467 129.5C237.467 130.519 236.61 131.377 235.592 131.377C234.521 131.377 233.663 130.572 233.717 129.5C233.663 129.5 233.663 129.5 233.717 129.5ZM233.717 121.993C233.717 120.974 234.574 120.116 235.592 120.116C236.61 120.116 237.467 120.974 237.467 121.993C237.467 123.012 236.61 123.87 235.592 123.87C234.521 123.87 233.663 123.065 233.717 121.993C233.663 121.993 233.663 121.993 233.717 121.993ZM233.717 114.485C233.717 113.467 234.574 112.609 235.592 112.609C236.61 112.609 237.467 113.467 237.467 114.485C237.467 115.504 236.61 116.362 235.592 116.362C234.521 116.362 233.663 115.558 233.717 114.485C233.663 114.485 233.663 114.485 233.717 114.485ZM233.717 106.978C233.717 105.959 234.574 105.101 235.592 105.101C236.61 105.101 237.467 105.959 237.467 106.978C237.467 107.997 236.61 108.855 235.592 108.855C234.521 108.855 233.663 108.051 233.717 106.978C233.663 106.978 233.663 106.978 233.717 106.978ZM233.717 99.471C233.717 98.4521 234.574 97.5942 235.592 97.5942C236.61 97.5942 237.467 98.4521 237.467 99.471C237.467 100.49 236.61 101.348 235.592 101.348C234.521 101.348 233.663 100.543 233.717 99.471C233.663 99.471 233.663 99.471 233.717 99.471ZM233.717 91.9637C233.717 90.9449 234.574 90.0869 235.592 90.0869C236.61 90.0869 237.467 90.9449 237.467 91.9637C237.467 92.9826 236.61 93.8405 235.592 93.8405C234.521 93.8405 233.663 93.0362 233.717 91.9637C233.663 91.9637 233.663 91.9637 233.717 91.9637ZM233.717 84.4565C233.717 83.4376 234.574 82.5797 235.592 82.5797C236.61 82.5797 237.467 83.4376 237.467 84.4565C237.467 85.4753 236.61 86.3333 235.592 86.3333C234.521 86.3333 233.663 85.529 233.717 84.4565C233.663 84.4565 233.663 84.4565 233.717 84.4565ZM233.717 76.9492C233.717 75.9304 234.574 75.0724 235.592 75.0724C236.61 75.0724 237.467 75.9304 237.467 76.9492C237.467 77.9681 236.61 78.8261 235.592 78.8261C234.521 78.8261 233.663 78.0217 233.717 76.9492C233.663 76.9492 233.663 76.9492 233.717 76.9492ZM233.717 69.442C233.717 68.4232 234.574 67.5652 235.592 67.5652C236.61 67.5652 237.467 68.4232 237.467 69.442C237.467 70.4608 236.61 71.3188 235.592 71.3188C234.521 71.3188 233.663 70.5145 233.717 69.442C233.663 69.442 233.663 69.442 233.717 69.442ZM323.249 137.812C323.249 136.793 324.107 135.935 325.125 135.935C326.143 135.935 327 136.793 327 137.812C327 138.83 326.143 139.688 325.125 139.688C324.053 139.688 323.249 138.83 323.249 137.812ZM315.748 137.812C315.748 136.793 316.605 135.935 317.623 135.935C318.642 135.935 319.499 136.793 319.499 137.812C319.499 138.83 318.642 139.688 317.623 139.688C316.552 139.688 315.748 138.83 315.748 137.812ZM308.247 137.812C308.247 136.793 309.104 135.935 310.122 135.935C311.14 135.935 311.998 136.793 311.998 137.812C311.998 138.83 311.14 139.688 310.122 139.688C309.051 139.688 308.247 138.83 308.247 137.812ZM300.746 137.812C300.746 136.793 301.603 135.935 302.621 135.935C303.639 135.935 304.496 136.793 304.496 137.812C304.496 138.83 303.639 139.688 302.621 139.688C301.549 139.688 300.746 138.884 300.746 137.812ZM293.244 137.812C293.244 136.793 294.102 135.935 295.12 135.935C296.138 135.935 296.995 136.793 296.995 137.812C296.995 138.83 296.138 139.688 295.12 139.688C294.048 139.688 293.244 138.83 293.244 137.812ZM285.743 137.812C285.743 136.793 286.601 135.935 287.619 135.935C288.637 135.935 289.494 136.793 289.494 137.812C289.494 138.83 288.637 139.688 287.619 139.688C286.547 139.688 285.743 138.83 285.743 137.812ZM278.242 137.812C278.242 136.793 279.099 135.935 280.117 135.935C281.135 135.935 281.993 136.793 281.993 137.812C281.993 138.83 281.135 139.688 280.117 139.688C279.046 139.688 278.242 138.83 278.242 137.812ZM270.741 137.812C270.741 136.793 271.598 135.935 272.616 135.935C273.634 135.935 274.491 136.793 274.491 137.812C274.491 138.83 273.634 139.688 272.616 139.688C271.544 139.688 270.741 138.83 270.741 137.812ZM263.24 137.812C263.24 136.793 264.097 135.935 265.115 135.935C266.133 135.935 266.99 136.793 266.99 137.812C266.99 138.83 266.133 139.688 265.115 139.688C264.043 139.688 263.24 138.83 263.24 137.812ZM255.738 137.812C255.738 136.793 256.596 135.935 257.614 135.935C258.632 135.935 259.489 136.793 259.489 137.812C259.489 138.83 258.632 139.688 257.614 139.688C256.542 139.688 255.738 138.83 255.738 137.812ZM248.237 137.812C248.237 136.793 249.094 135.935 250.112 135.935C251.13 135.935 251.988 136.793 251.988 137.812C251.988 138.83 251.13 139.688 250.112 139.688C249.041 139.688 248.237 138.83 248.237 137.812ZM240.736 137.812C240.736 136.793 241.593 135.935 242.611 135.935C243.629 135.935 244.486 136.793 244.486 137.812C244.486 138.83 243.629 139.688 242.611 139.688C241.54 139.688 240.736 138.83 240.736 137.812ZM233.235 137.812C233.235 136.793 234.092 135.935 235.11 135.935C236.128 135.935 236.985 136.793 236.985 137.812C236.985 138.83 236.128 139.688 235.11 139.688C234.038 139.688 233.235 138.83 233.235 137.812ZM225.733 137.812C225.733 136.793 226.591 135.935 227.609 135.935C228.627 135.935 229.484 136.793 229.484 137.812C229.484 138.83 228.627 139.688 227.609 139.688C226.537 139.688 225.733 138.83 225.733 137.812ZM218.232 137.812C218.232 136.793 219.089 135.935 220.107 135.935C221.126 135.935 221.983 136.793 221.983 137.812C221.983 138.83 221.126 139.688 220.107 139.688C219.036 139.688 218.232 138.83 218.232 137.812ZM210.731 137.812C210.731 136.793 211.588 135.935 212.606 135.935C213.624 135.935 214.482 136.793 214.482 137.812C214.482 138.83 213.624 139.688 212.606 139.688C211.535 139.688 210.731 138.83 210.731 137.812ZM203.23 137.812C203.23 136.793 204.087 135.935 205.105 135.935C206.123 135.935 206.98 136.793 206.98 137.812C206.98 138.83 206.123 139.688 205.105 139.688C204.033 139.688 203.23 138.83 203.23 137.812ZM195.729 137.812C195.729 136.793 196.586 135.935 197.604 135.935C198.622 135.935 199.479 136.793 199.479 137.812C199.479 138.83 198.622 139.688 197.604 139.688C196.532 139.688 195.729 138.83 195.729 137.812ZM188.227 137.812C188.227 136.793 189.085 135.935 190.103 135.935C191.121 135.935 191.978 136.793 191.978 137.812C191.978 138.83 191.121 139.688 190.103 139.688C189.031 139.688 188.227 138.83 188.227 137.812ZM180.726 137.812C180.726 136.793 181.583 135.935 182.601 135.935C183.619 135.935 184.477 136.793 184.477 137.812C184.477 138.83 183.619 139.688 182.601 139.688C181.53 139.688 180.726 138.83 180.726 137.812ZM173.225 137.812C173.225 136.793 174.082 135.935 175.1 135.935C176.118 135.935 176.975 136.793 176.975 137.812C176.975 138.83 176.118 139.688 175.1 139.688C174.029 139.688 173.225 138.83 173.225 137.812ZM165.724 137.812C165.724 136.793 166.581 135.935 167.599 135.935C168.617 135.935 169.474 136.793 169.474 137.812C169.474 138.83 168.617 139.688 167.599 139.688C166.527 139.688 165.724 138.83 165.724 137.812ZM158.222 137.812C158.222 136.793 159.08 135.935 160.098 135.935C161.116 135.935 161.973 136.793 161.973 137.812C161.973 138.83 161.116 139.688 160.098 139.688C159.026 139.688 158.222 138.83 158.222 137.812ZM150.721 137.812C150.721 136.793 151.578 135.935 152.596 135.935C153.614 135.935 154.472 136.793 154.472 137.812C154.472 138.83 153.614 139.688 152.596 139.688C151.525 139.688 150.721 138.83 150.721 137.812ZM143.22 137.812C143.22 136.793 144.077 135.935 145.095 135.935C146.113 135.935 146.971 136.793 146.971 137.812C146.971 138.83 146.113 139.688 145.095 139.688C144.024 139.688 143.22 138.83 143.22 137.812ZM135.719 137.812C135.719 136.793 136.576 135.935 137.594 135.935C138.612 135.935 139.469 136.793 139.469 137.812C139.469 138.83 138.612 139.688 137.594 139.688C136.522 139.688 135.719 138.83 135.719 137.812ZM128.217 137.812C128.217 136.793 129.075 135.935 130.093 135.935C131.111 135.935 131.968 136.793 131.968 137.812C131.968 138.83 131.111 139.688 130.093 139.688C129.021 139.688 128.217 138.83 128.217 137.812ZM120.716 137.812C120.716 136.793 121.574 135.935 122.592 135.935C123.61 135.935 124.467 136.793 124.467 137.812C124.467 138.83 123.61 139.688 122.592 139.688C121.52 139.688 120.716 138.83 120.716 137.812ZM113.215 137.812C113.215 136.793 114.072 135.935 115.09 135.935C116.108 135.935 116.966 136.793 116.966 137.812C116.966 138.83 116.108 139.688 115.09 139.688C114.019 139.688 113.215 138.83 113.215 137.812ZM105.714 137.812C105.714 136.793 106.571 135.935 107.589 135.935C108.607 135.935 109.464 136.793 109.464 137.812C109.464 138.83 108.607 139.688 107.589 139.688C106.517 139.688 105.714 138.83 105.714 137.812ZM98.2125 137.812C98.2125 136.793 99.0698 135.935 100.088 135.935C101.106 135.935 101.963 136.793 101.963 137.812C101.963 138.83 101.106 139.688 100.088 139.688C99.0162 139.688 98.2125 138.83 98.2125 137.812ZM90.7113 137.812C90.7113 136.793 91.5686 135.935 92.5866 135.935C93.6046 135.935 94.4619 136.793 94.4619 137.812C94.4619 138.83 93.6046 139.688 92.5866 139.688C91.515 139.688 90.7113 138.83 90.7113 137.812ZM83.2101 137.812C83.2101 136.793 84.0674 135.935 85.0854 135.935C86.1034 135.935 86.9607 136.793 86.9607 137.812C86.9607 138.83 86.1034 139.688 85.0854 139.688C84.0138 139.688 83.2101 138.83 83.2101 137.812ZM75.7088 137.812C75.7088 136.793 76.5661 135.935 77.5841 135.935C78.6022 135.935 79.4594 136.793 79.4594 137.812C79.4594 138.83 78.6022 139.688 77.5841 139.688C76.5125 139.688 75.7088 138.83 75.7088 137.812ZM68.2076 137.812C68.2076 136.793 69.0649 135.935 70.0829 135.935C71.1009 135.935 71.9582 136.793 71.9582 137.812C71.9582 138.83 71.1009 139.688 70.0829 139.688C69.0113 139.688 68.2076 138.83 68.2076 137.812ZM60.7064 137.812C60.7064 136.793 61.5637 135.935 62.5817 135.935C63.5997 135.935 64.457 136.793 64.457 137.812C64.457 138.83 63.5997 139.688 62.5817 139.688C61.5101 139.688 60.7064 138.83 60.7064 137.812ZM53.2052 137.812C53.2052 136.793 54.0624 135.935 55.0805 135.935C56.0985 135.935 56.9558 136.793 56.9558 137.812C56.9558 138.83 56.0985 139.688 55.0805 139.688C54.0089 139.688 53.2052 138.83 53.2052 137.812ZM45.7039 137.812C45.7039 136.793 46.5612 135.935 47.5792 135.935C48.5973 135.935 49.4545 136.793 49.4545 137.812C49.4545 138.83 48.5973 139.688 47.5792 139.688C46.5076 139.688 45.7039 138.83 45.7039 137.812ZM322.606 217.978C322.606 216.959 323.464 216.101 324.482 216.101C325.5 216.101 326.357 216.959 326.357 217.978C326.357 218.997 325.5 219.855 324.482 219.855C323.464 219.855 322.606 219.051 322.606 217.978ZM315.105 217.978C315.105 216.959 315.962 216.101 316.98 216.101C317.999 216.101 318.856 216.959 318.856 217.978C318.856 218.997 317.999 219.855 316.98 219.855C315.962 219.855 315.105 219.051 315.105 217.978ZM307.604 217.978C307.604 216.959 308.461 216.101 309.479 216.101C310.497 216.101 311.355 216.959 311.355 217.978C311.355 218.997 310.497 219.855 309.479 219.855C308.461 219.855 307.604 219.051 307.604 217.978ZM300.103 217.978C300.103 216.959 300.96 216.101 301.978 216.101C302.996 216.101 303.853 216.959 303.853 217.978C303.853 218.997 302.996 219.855 301.978 219.855C300.96 219.855 300.103 219.051 300.103 217.978ZM292.602 217.978C292.602 216.959 293.459 216.101 294.477 216.101C295.495 216.101 296.352 216.959 296.352 217.978C296.352 218.997 295.495 219.855 294.477 219.855C293.459 219.855 292.602 219.051 292.602 217.978ZM285.1 217.978C285.1 216.959 285.958 216.101 286.976 216.101C287.994 216.101 288.851 216.959 288.851 217.978C288.851 218.997 287.994 219.855 286.976 219.855C285.958 219.855 285.1 219.051 285.1 217.978ZM277.599 217.978C277.599 216.959 278.456 216.101 279.474 216.101C280.492 216.101 281.35 216.959 281.35 217.978C281.35 218.997 280.492 219.855 279.474 219.855C278.456 219.855 277.599 219.051 277.599 217.978ZM270.098 217.978C270.098 216.959 270.955 216.101 271.973 216.101C272.991 216.101 273.848 216.959 273.848 217.978C273.848 218.997 272.991 219.855 271.973 219.855C270.955 219.855 270.098 219.051 270.098 217.978ZM262.597 217.978C262.597 216.959 263.454 216.101 264.472 216.101C265.49 216.101 266.347 216.959 266.347 217.978C266.347 218.997 265.49 219.855 264.472 219.855C263.454 219.855 262.597 219.051 262.597 217.978ZM255.095 217.978C255.095 216.959 255.953 216.101 256.971 216.101C257.989 216.101 258.846 216.959 258.846 217.978C258.846 218.997 257.989 219.855 256.971 219.855C255.953 219.855 255.095 218.997 255.095 217.978ZM247.594 217.978C247.594 216.959 248.451 216.101 249.469 216.101C250.487 216.101 251.345 216.959 251.345 217.978C251.345 218.997 250.487 219.855 249.469 219.855C248.451 219.855 247.594 218.997 247.594 217.978ZM240.093 217.978C240.093 216.959 240.95 216.101 241.968 216.101C242.986 216.101 243.844 216.959 243.844 217.978C243.844 218.997 242.986 219.855 241.968 219.855C240.95 219.855 240.093 218.997 240.093 217.978ZM232.592 217.978C232.592 216.959 233.449 216.101 234.467 216.101C235.485 216.101 236.342 216.959 236.342 217.978C236.342 218.997 235.485 219.855 234.467 219.855C233.449 219.855 232.592 218.997 232.592 217.978ZM225.09 217.978C225.09 216.959 225.948 216.101 226.966 216.101C227.984 216.101 228.841 216.959 228.841 217.978C228.841 218.997 227.984 219.855 226.966 219.855C225.948 219.855 225.09 218.997 225.09 217.978ZM217.589 217.978C217.589 216.959 218.447 216.101 219.465 216.101C220.483 216.101 221.34 216.959 221.34 217.978C221.34 218.997 220.483 219.855 219.465 219.855C218.447 219.855 217.589 218.997 217.589 217.978ZM210.088 217.978C210.088 216.959 210.945 216.101 211.963 216.101C212.981 216.101 213.839 216.959 213.839 217.978C213.839 218.997 212.981 219.855 211.963 219.855C210.945 219.855 210.088 218.997 210.088 217.978ZM202.587 217.978C202.587 216.959 203.444 216.101 204.462 216.101C205.48 216.101 206.337 216.959 206.337 217.978C206.337 218.997 205.48 219.855 204.462 219.855C203.444 219.855 202.587 218.997 202.587 217.978ZM195.086 217.978C195.086 216.959 195.943 216.101 196.961 216.101C197.979 216.101 198.836 216.959 198.836 217.978C198.836 218.997 197.979 219.855 196.961 219.855C195.943 219.855 195.086 218.997 195.086 217.978ZM187.584 217.978C187.584 216.959 188.442 216.101 189.46 216.101C190.478 216.101 191.335 216.959 191.335 217.978C191.335 218.997 190.478 219.855 189.46 219.855C188.442 219.855 187.584 218.997 187.584 217.978ZM180.083 217.978C180.083 216.959 180.94 216.101 181.958 216.101C182.976 216.101 183.834 216.959 183.834 217.978C183.834 218.997 182.976 219.855 181.958 219.855C180.94 219.855 180.083 218.997 180.083 217.978ZM172.582 217.978C172.582 216.959 173.439 216.101 174.457 216.101C175.475 216.101 176.332 216.959 176.332 217.978C176.332 218.997 175.475 219.855 174.457 219.855C173.439 219.855 172.582 219.051 172.582 217.978ZM165.081 217.978C165.081 216.959 165.938 216.101 166.956 216.101C167.974 216.101 168.831 216.959 168.831 217.978C168.831 218.997 167.974 219.855 166.956 219.855C165.938 219.855 165.081 218.997 165.081 217.978ZM157.579 217.978C157.579 216.959 158.437 216.101 159.455 216.101C160.473 216.101 161.33 216.959 161.33 217.978C161.33 218.997 160.473 219.855 159.455 219.855C158.437 219.855 157.579 218.997 157.579 217.978ZM150.078 217.978C150.078 216.959 150.935 216.101 151.953 216.101C152.971 216.101 153.829 216.959 153.829 217.978C153.829 218.997 152.971 219.855 151.953 219.855C150.935 219.855 150.078 218.997 150.078 217.978ZM142.577 217.978C142.577 216.959 143.434 216.101 144.452 216.101C145.47 216.101 146.328 216.959 146.328 217.978C146.328 218.997 145.47 219.855 144.452 219.855C143.434 219.855 142.577 218.997 142.577 217.978ZM135.076 217.978C135.076 216.959 135.933 216.101 136.951 216.101C137.969 216.101 138.826 216.959 138.826 217.978C138.826 218.997 137.969 219.855 136.951 219.855C135.933 219.855 135.076 218.997 135.076 217.978ZM127.574 217.978C127.574 216.959 128.432 216.101 129.45 216.101C130.468 216.101 131.325 216.959 131.325 217.978C131.325 218.997 130.468 219.855 129.45 219.855C128.432 219.855 127.574 218.997 127.574 217.978ZM120.073 217.978C120.073 216.959 120.931 216.101 121.949 216.101C122.967 216.101 123.824 216.959 123.824 217.978C123.824 218.997 122.967 219.855 121.949 219.855C120.931 219.855 120.073 218.997 120.073 217.978ZM112.572 217.978C112.572 216.959 113.429 216.101 114.447 216.101C115.465 216.101 116.323 216.959 116.323 217.978C116.323 218.997 115.465 219.855 114.447 219.855C113.429 219.855 112.572 218.997 112.572 217.978ZM105.071 217.978C105.071 216.959 105.928 216.101 106.946 216.101C107.964 216.101 108.821 216.959 108.821 217.978C108.821 218.997 107.964 219.855 106.946 219.855C105.928 219.855 105.071 218.997 105.071 217.978ZM97.5696 217.978C97.5696 216.959 98.4268 216.101 99.4449 216.101C100.463 216.101 101.32 216.959 101.32 217.978C101.32 218.997 100.463 219.855 99.4449 219.855C98.4268 219.855 97.5696 218.997 97.5696 217.978ZM90.0683 217.978C90.0683 216.959 90.9256 216.101 91.9436 216.101C92.9617 216.101 93.8189 216.959 93.8189 217.978C93.8189 218.997 92.9617 219.855 91.9436 219.855C90.9256 219.855 90.0683 218.997 90.0683 217.978ZM82.5671 217.978C82.5671 216.959 83.4244 216.101 84.4424 216.101C85.4604 216.101 86.3177 216.959 86.3177 217.978C86.3177 218.997 85.4604 219.855 84.4424 219.855C83.4244 219.855 82.5671 218.997 82.5671 217.978ZM75.0659 217.978C75.0659 216.959 75.9232 216.101 76.9412 216.101C77.9592 216.101 78.8165 216.959 78.8165 217.978C78.8165 218.997 77.9592 219.855 76.9412 219.855C75.9232 219.855 75.0659 218.997 75.0659 217.978ZM67.5647 217.978C67.5647 216.959 68.4219 216.101 69.44 216.101C70.458 216.101 71.3153 216.959 71.3153 217.978C71.3153 218.997 70.458 219.855 69.44 219.855C68.4219 219.855 67.5647 218.997 67.5647 217.978ZM60.0634 217.978C60.0634 216.959 60.9207 216.101 61.9387 216.101C62.9568 216.101 63.814 216.959 63.814 217.978C63.814 218.997 62.9568 219.855 61.9387 219.855C60.9207 219.855 60.0634 218.997 60.0634 217.978ZM52.5622 217.978C52.5622 216.959 53.4195 216.101 54.4375 216.101C55.4555 216.101 56.3128 216.959 56.3128 217.978C56.3128 218.997 55.4555 219.855 54.4375 219.855C53.4195 219.855 52.5622 218.997 52.5622 217.978ZM45.061 217.978C45.061 216.959 45.9182 216.101 46.9363 216.101C47.9543 216.101 48.8116 216.959 48.8116 217.978C48.8116 218.997 47.9543 219.855 46.9363 219.855C45.9182 219.855 45.061 218.997 45.061 217.978ZM37.5597 217.978C37.5597 216.959 38.417 216.101 39.435 216.101C40.4531 216.101 41.3103 216.959 41.3103 217.978C41.3103 218.997 40.4531 219.855 39.435 219.855C38.417 219.855 37.5597 218.997 37.5597 217.978ZM30.0585 217.978C30.0585 216.959 30.9158 216.101 31.9338 216.101C32.9518 216.101 33.8091 216.959 33.8091 217.978C33.8091 218.997 32.9518 219.855 31.9338 219.855C30.9158 219.855 30.0585 218.997 30.0585 217.978ZM22.5573 217.978C22.5573 216.959 23.4146 216.101 24.4326 216.101C25.4506 216.101 26.3079 216.959 26.3079 217.978C26.3079 218.997 25.4506 219.855 24.4326 219.855C23.4146 219.855 22.5573 218.997 22.5573 217.978ZM15.056 217.978C15.056 216.959 15.9133 216.101 16.9314 216.101C17.9494 216.101 18.8067 216.959 18.8067 217.978C18.8067 218.997 17.9494 219.855 16.9314 219.855C15.9133 219.855 15.056 218.997 15.056 217.978ZM7.55482 217.978C7.55482 216.959 8.4121 216.101 9.43013 216.101C10.4481 216.101 11.3054 216.959 11.3054 217.978C11.3054 218.997 10.4481 219.855 9.43013 219.855C8.4121 219.855 7.55482 218.997 7.55482 217.978ZM0.0535889 217.978C0.0535889 216.959 0.910872 216.101 1.9289 216.101C2.94692 216.101 3.8042 216.959 3.8042 217.978C3.8042 218.997 2.94692 219.855 1.9289 219.855C0.910872 219.855 0.0535889 218.997 0.0535889 217.978Z" fill="#009FE3"/>
<path d="M134.969 234.87H194.443V252.351H134.969V234.87Z" fill="white"/>
<path d="M71.476 247.632V122.261C71.476 117.22 75.548 113.145 80.5846 113.145H250.97C256.006 113.145 260.078 117.22 260.078 122.261V247.632" fill="#1E1E1E"/>
<path d="M260.4 247.632H259.864V122.261C259.864 117.381 255.899 113.413 251.023 113.413H80.6381C75.7623 113.413 71.7974 117.381 71.7974 122.261V247.632H71.2616V122.261C71.3152 117.113 75.4944 112.93 80.6381 112.877H251.023C256.167 112.93 260.346 117.113 260.4 122.261V247.632Z" fill="#EDEDED"/>
<path d="M85.4068 127.087H246.147V228.703H85.4068V127.087Z" fill="#2B8CC4"/>
<path d="M246.469 228.971H85.1925V126.819H246.469V228.971ZM85.7283 228.435H245.933V127.355H85.7283V228.435Z" fill="#0B0C0C"/>
<path d="M96.6587 138.348H234.896V217.442H96.6587V138.348Z" fill="white"/>
<path d="M234.36 138.884V216.906H97.1944V138.884H234.36ZM235.431 137.812H96.1228V217.978H235.431V137.812Z" fill="#0B0C0C"/>
<path d="M96.1228 137.812H235.431V151.486H96.1228V137.812Z" fill="#0B0C0C"/>
<path d="M105.392 200.98H156.668V209.023H105.392V200.98Z" fill="#00703C"/>
<path d="M144.827 242.43H186.941V249.723H144.827V242.43Z" fill="#505A5F"/>
<path d="M182.976 246.935H148.631C146.595 246.935 144.881 244.736 144.72 242.645H43.6143V253.906L71.476 257.123H260.078L287.94 253.906V242.645H186.888C186.727 244.843 185.066 246.935 182.976 246.935Z" fill="#B2B2B2"/>
<path d="M43.6143 253.906L71.476 257.123H260.078L287.94 253.906H43.6143Z" fill="#505A5F"/>
<path d="M287.94 242.645H186.888C186.781 244.843 185.12 246.935 182.976 246.935H148.631C146.595 246.935 144.881 244.736 144.72 242.645H43.6143" stroke="#EDEDED" stroke-miterlimit="10"/>
<path d="M43.6143 257.123H287.94V258.732H43.6143V257.123Z" fill="#1A345C"/>
<path d="M105.392 209.023H156.668V210.096H105.392V209.023Z" fill="#0B0C0C"/>
<rect x="119" y="190" width="25" height="1" fill="#0B0C0C"/>
<rect x="106.5" y="185.5" width="9" height="9" fill="white" stroke="#0B0C0C"/>
<rect x="119" y="177" width="25" height="1" fill="#0B0C0C"/>
<rect x="106.5" y="172.5" width="9" height="9" fill="white" stroke="#0B0C0C"/>
<g clip-path="url(#clip1_683_1863)">
<path d="M108.721 157.9C109.242 157.9 109.709 157.995 110.122 158.184C110.535 158.369 110.885 158.625 111.172 158.95C111.462 159.272 111.681 159.653 111.831 160.093C111.984 160.529 112.061 160.998 112.061 161.499C112.061 162.004 111.984 162.474 111.831 162.91C111.681 163.346 111.462 163.727 111.172 164.053C111.149 164.079 111.126 164.105 111.104 164.131L111.719 164.888L110.718 165.708L110.034 164.858C109.644 165.018 109.206 165.098 108.721 165.098C108.197 165.098 107.728 165.005 107.314 164.819C106.904 164.634 106.554 164.378 106.265 164.053C105.978 163.727 105.758 163.346 105.605 162.91C105.456 162.474 105.381 162.004 105.381 161.499C105.381 160.998 105.456 160.529 105.605 160.093C105.758 159.653 105.978 159.272 106.265 158.95C106.554 158.625 106.904 158.369 107.314 158.184C107.728 157.995 108.197 157.9 108.721 157.9ZM108.721 163.818C108.877 163.818 109.023 163.804 109.16 163.774L108.369 162.788L109.37 161.968L110.215 163.022C110.326 162.85 110.413 162.655 110.479 162.437C110.56 162.157 110.601 161.851 110.601 161.519V161.479C110.601 161.151 110.56 160.846 110.479 160.566C110.397 160.283 110.277 160.039 110.117 159.834C109.958 159.629 109.761 159.469 109.526 159.355C109.295 159.238 109.027 159.18 108.721 159.18C108.415 159.18 108.145 159.238 107.91 159.355C107.676 159.469 107.479 159.629 107.319 159.834C107.163 160.039 107.044 160.283 106.963 160.566C106.882 160.846 106.841 161.151 106.841 161.479V161.519C106.841 161.851 106.882 162.157 106.963 162.437C107.044 162.716 107.163 162.959 107.319 163.164C107.479 163.369 107.676 163.53 107.91 163.647C108.145 163.761 108.415 163.818 108.721 163.818ZM117.461 165H116.113V164.551C116.038 164.622 115.957 164.692 115.869 164.761C115.781 164.826 115.684 164.884 115.576 164.937C115.469 164.985 115.348 165.024 115.215 165.054C115.085 165.083 114.94 165.098 114.78 165.098C114.497 165.098 114.243 165.052 114.019 164.961C113.794 164.867 113.604 164.74 113.447 164.58C113.294 164.417 113.177 164.227 113.096 164.009C113.014 163.791 112.974 163.555 112.974 163.301V159.771H114.321V162.808C114.321 162.993 114.341 163.151 114.38 163.281C114.422 163.411 114.479 163.517 114.551 163.599C114.626 163.677 114.714 163.735 114.814 163.774C114.915 163.81 115.024 163.828 115.142 163.828C115.278 163.828 115.405 163.804 115.522 163.755C115.643 163.706 115.747 163.633 115.835 163.535C115.923 163.434 115.991 163.309 116.04 163.159C116.089 163.009 116.113 162.834 116.113 162.632V159.771H117.461V165ZM119.756 162.852C119.779 163.008 119.827 163.151 119.902 163.281C119.98 163.411 120.078 163.524 120.195 163.618C120.312 163.709 120.448 163.781 120.601 163.833C120.754 163.885 120.916 163.911 121.089 163.911C121.287 163.911 121.502 163.874 121.733 163.799C121.965 163.721 122.176 163.608 122.368 163.462L123.018 164.409C122.773 164.614 122.474 164.78 122.119 164.907C121.764 165.034 121.387 165.098 120.986 165.098C120.625 165.098 120.285 165.036 119.966 164.912C119.647 164.788 119.367 164.609 119.126 164.375C118.888 164.141 118.7 163.856 118.56 163.521C118.423 163.185 118.354 162.808 118.354 162.388C118.354 162.004 118.415 161.646 118.535 161.313C118.659 160.981 118.83 160.693 119.048 160.449C119.269 160.205 119.533 160.015 119.839 159.878C120.145 159.738 120.483 159.668 120.854 159.668C121.2 159.668 121.52 159.731 121.816 159.858C122.113 159.982 122.37 160.158 122.588 160.386C122.806 160.61 122.977 160.881 123.101 161.196C123.224 161.512 123.286 161.86 123.286 162.241V162.852H119.756ZM120.85 160.84C120.56 160.84 120.314 160.938 120.112 161.133C119.914 161.325 119.798 161.558 119.766 161.831H121.875C121.868 161.554 121.768 161.32 121.572 161.128C121.377 160.936 121.136 160.84 120.85 160.84ZM124.517 163.33C124.709 163.503 124.938 163.651 125.205 163.774C125.472 163.898 125.742 163.96 126.016 163.96C126.214 163.96 126.37 163.923 126.484 163.848C126.598 163.77 126.655 163.67 126.655 163.55C126.655 163.345 126.436 163.185 125.996 163.071L125.615 162.969C125.426 162.923 125.236 162.861 125.044 162.783C124.852 162.702 124.674 162.596 124.512 162.466C124.352 162.336 124.222 162.178 124.121 161.992C124.023 161.803 123.975 161.572 123.975 161.299C123.975 161.081 124.022 160.874 124.116 160.679C124.214 160.48 124.351 160.306 124.526 160.156C124.705 160.007 124.922 159.888 125.176 159.8C125.43 159.712 125.713 159.668 126.025 159.668C126.471 159.668 126.868 159.738 127.217 159.878C127.568 160.018 127.845 160.176 128.047 160.352L127.344 161.25C127.178 161.13 126.981 161.027 126.753 160.942C126.528 160.854 126.302 160.811 126.074 160.811C125.863 160.811 125.698 160.85 125.581 160.928C125.464 161.003 125.405 161.094 125.405 161.201C125.405 161.315 125.456 161.408 125.557 161.479C125.661 161.548 125.811 161.608 126.006 161.66L126.572 161.821C127.113 161.974 127.5 162.181 127.734 162.441C127.969 162.702 128.086 163.031 128.086 163.428C128.086 163.649 128.04 163.861 127.949 164.062C127.858 164.261 127.725 164.438 127.549 164.595C127.373 164.751 127.155 164.875 126.895 164.966C126.634 165.054 126.338 165.098 126.006 165.098C125.752 165.098 125.513 165.075 125.288 165.029C125.067 164.984 124.86 164.922 124.668 164.844C124.479 164.762 124.308 164.671 124.155 164.57C124.002 164.469 123.872 164.368 123.765 164.268L124.517 163.33ZM130.889 163.442C130.889 163.504 130.897 163.563 130.913 163.618C130.929 163.674 130.957 163.722 130.996 163.765C131.038 163.804 131.097 163.835 131.172 163.857C131.247 163.88 131.343 163.892 131.46 163.892C131.509 163.892 131.564 163.89 131.626 163.887C131.688 163.88 131.75 163.874 131.812 163.867C131.873 163.861 131.93 163.853 131.982 163.843C132.038 163.833 132.083 163.825 132.119 163.818L132.241 165.01C132.114 165.026 131.982 165.041 131.846 165.054C131.729 165.067 131.598 165.076 131.455 165.083C131.312 165.093 131.167 165.098 131.021 165.098C130.555 165.098 130.192 164.992 129.932 164.78C129.671 164.569 129.541 164.232 129.541 163.77V160.942H128.599V159.771H129.541V158.291L130.889 157.93V159.771H132.261V160.942H130.889V163.442ZM134.458 165H133.11V159.771H134.458V165ZM132.969 158.398C132.969 158.288 132.99 158.184 133.032 158.086C133.075 157.985 133.132 157.899 133.203 157.827C133.278 157.752 133.364 157.694 133.462 157.651C133.56 157.609 133.665 157.588 133.779 157.588C133.89 157.588 133.994 157.609 134.092 157.651C134.193 157.694 134.279 157.752 134.351 157.827C134.425 157.899 134.484 157.985 134.526 158.086C134.569 158.184 134.59 158.288 134.59 158.398C134.59 158.512 134.569 158.618 134.526 158.716C134.484 158.813 134.425 158.9 134.351 158.975C134.279 159.046 134.193 159.103 134.092 159.146C133.994 159.188 133.89 159.209 133.779 159.209C133.665 159.209 133.56 159.188 133.462 159.146C133.364 159.103 133.278 159.046 133.203 158.975C133.132 158.9 133.075 158.813 133.032 158.716C132.99 158.618 132.969 158.512 132.969 158.398ZM137.92 159.668C138.307 159.668 138.659 159.738 138.975 159.878C139.29 160.015 139.561 160.205 139.785 160.449C140.01 160.693 140.182 160.981 140.303 161.313C140.426 161.646 140.488 162.004 140.488 162.388C140.488 162.775 140.426 163.135 140.303 163.467C140.179 163.796 140.005 164.08 139.78 164.321C139.556 164.562 139.285 164.753 138.97 164.893C138.654 165.029 138.304 165.098 137.92 165.098C137.533 165.098 137.181 165.029 136.865 164.893C136.549 164.753 136.279 164.562 136.055 164.321C135.83 164.08 135.656 163.796 135.532 163.467C135.409 163.135 135.347 162.775 135.347 162.388C135.347 162.004 135.407 161.646 135.527 161.313C135.651 160.981 135.825 160.693 136.05 160.449C136.274 160.205 136.545 160.015 136.86 159.878C137.179 159.738 137.533 159.668 137.92 159.668ZM137.92 163.848C138.112 163.848 138.281 163.812 138.428 163.74C138.577 163.669 138.703 163.569 138.804 163.442C138.905 163.315 138.981 163.164 139.033 162.988C139.085 162.809 139.111 162.614 139.111 162.402V162.368C139.111 162.157 139.085 161.963 139.033 161.787C138.981 161.608 138.905 161.455 138.804 161.328C138.703 161.198 138.577 161.097 138.428 161.025C138.281 160.954 138.112 160.918 137.92 160.918C137.728 160.918 137.557 160.954 137.407 161.025C137.261 161.097 137.137 161.198 137.036 161.328C136.935 161.455 136.859 161.608 136.807 161.787C136.755 161.963 136.729 162.157 136.729 162.368V162.402C136.729 162.614 136.755 162.809 136.807 162.988C136.859 163.164 136.935 163.315 137.036 163.442C137.137 163.569 137.261 163.669 137.407 163.74C137.557 163.812 137.728 163.848 137.92 163.848ZM141.382 159.771H142.729V160.22C142.801 160.148 142.881 160.08 142.969 160.015C143.06 159.946 143.159 159.888 143.267 159.839C143.374 159.787 143.493 159.746 143.623 159.717C143.757 159.684 143.903 159.668 144.062 159.668C144.346 159.668 144.6 159.715 144.824 159.81C145.049 159.901 145.238 160.028 145.391 160.19C145.547 160.353 145.666 160.544 145.747 160.762C145.828 160.98 145.869 161.216 145.869 161.47V165H144.521V161.958C144.521 161.772 144.5 161.616 144.458 161.489C144.416 161.359 144.357 161.255 144.282 161.177C144.211 161.095 144.124 161.037 144.023 161.001C143.926 160.962 143.818 160.942 143.701 160.942C143.564 160.942 143.436 160.967 143.315 161.016C143.198 161.064 143.096 161.139 143.008 161.24C142.92 161.338 142.852 161.462 142.803 161.611C142.754 161.761 142.729 161.937 142.729 162.139V165H141.382V159.771ZM151.104 159.668C151.491 159.668 151.842 159.738 152.158 159.878C152.474 160.015 152.744 160.205 152.969 160.449C153.193 160.693 153.366 160.981 153.486 161.313C153.61 161.646 153.672 162.004 153.672 162.388C153.672 162.775 153.61 163.135 153.486 163.467C153.363 163.796 153.188 164.08 152.964 164.321C152.739 164.562 152.469 164.753 152.153 164.893C151.838 165.029 151.488 165.098 151.104 165.098C150.716 165.098 150.365 165.029 150.049 164.893C149.733 164.753 149.463 164.562 149.238 164.321C149.014 164.08 148.84 163.796 148.716 163.467C148.592 163.135 148.53 162.775 148.53 162.388C148.53 162.004 148.59 161.646 148.711 161.313C148.835 160.981 149.009 160.693 149.233 160.449C149.458 160.205 149.728 160.015 150.044 159.878C150.363 159.738 150.716 159.668 151.104 159.668ZM151.104 163.848C151.296 163.848 151.465 163.812 151.611 163.74C151.761 163.669 151.886 163.569 151.987 163.442C152.088 163.315 152.165 163.164 152.217 162.988C152.269 162.809 152.295 162.614 152.295 162.402V162.368C152.295 162.157 152.269 161.963 152.217 161.787C152.165 161.608 152.088 161.455 151.987 161.328C151.886 161.198 151.761 161.097 151.611 161.025C151.465 160.954 151.296 160.918 151.104 160.918C150.911 160.918 150.741 160.954 150.591 161.025C150.444 161.097 150.321 161.198 150.22 161.328C150.119 161.455 150.042 161.608 149.99 161.787C149.938 161.963 149.912 162.157 149.912 162.368V162.402C149.912 162.614 149.938 162.809 149.99 162.988C150.042 163.164 150.119 163.315 150.22 163.442C150.321 163.569 150.444 163.669 150.591 163.74C150.741 163.812 150.911 163.848 151.104 163.848ZM154.565 159.771H155.913V160.22C155.985 160.148 156.064 160.08 156.152 160.015C156.243 159.946 156.343 159.888 156.45 159.839C156.558 159.787 156.676 159.746 156.807 159.717C156.94 159.684 157.087 159.668 157.246 159.668C157.529 159.668 157.783 159.715 158.008 159.81C158.232 159.901 158.421 160.028 158.574 160.19C158.73 160.353 158.849 160.544 158.931 160.762C159.012 160.98 159.053 161.216 159.053 161.47V165H157.705V161.958C157.705 161.772 157.684 161.616 157.642 161.489C157.599 161.359 157.541 161.255 157.466 161.177C157.394 161.095 157.308 161.037 157.207 161.001C157.109 160.962 157.002 160.942 156.885 160.942C156.748 160.942 156.619 160.967 156.499 161.016C156.382 161.064 156.279 161.139 156.191 161.24C156.104 161.338 156.035 161.462 155.986 161.611C155.938 161.761 155.913 161.937 155.913 162.139V165H154.565V159.771ZM161.309 162.852C161.331 163.008 161.38 163.151 161.455 163.281C161.533 163.411 161.631 163.524 161.748 163.618C161.865 163.709 162 163.781 162.153 163.833C162.306 163.885 162.469 163.911 162.642 163.911C162.84 163.911 163.055 163.874 163.286 163.799C163.517 163.721 163.729 163.608 163.921 163.462L164.57 164.409C164.326 164.614 164.027 164.78 163.672 164.907C163.317 165.034 162.939 165.098 162.539 165.098C162.178 165.098 161.838 165.036 161.519 164.912C161.2 164.788 160.92 164.609 160.679 164.375C160.441 164.141 160.252 163.856 160.112 163.521C159.976 163.185 159.907 162.808 159.907 162.388C159.907 162.004 159.967 161.646 160.088 161.313C160.212 160.981 160.382 160.693 160.601 160.449C160.822 160.205 161.086 160.015 161.392 159.878C161.698 159.738 162.036 159.668 162.407 159.668C162.752 159.668 163.073 159.731 163.369 159.858C163.665 159.982 163.923 160.158 164.141 160.386C164.359 160.61 164.53 160.881 164.653 161.196C164.777 161.512 164.839 161.86 164.839 162.241V162.852H161.309ZM162.402 160.84C162.113 160.84 161.867 160.938 161.665 161.133C161.466 161.325 161.351 161.558 161.318 161.831H163.428C163.421 161.554 163.32 161.32 163.125 161.128C162.93 160.936 162.689 160.84 162.402 160.84Z" fill="#231F20"/>
</g>
<path d="M43.041 189.842H56.7039V194.668H43.041V189.842ZM43.041 159.974H56.7039V164.8H43.041V159.974Z" fill="#B1B4B6"/>
<path d="M23.8592 202.98C29.7775 202.98 34.5753 198.178 34.5753 192.255C34.5753 186.332 29.7775 181.53 23.8592 181.53C17.9409 181.53 13.1432 186.332 13.1432 192.255C13.1432 198.178 17.9409 202.98 23.8592 202.98Z" fill="white"/>
<path d="M23.8592 183.675C28.5743 183.675 32.4321 187.536 32.4321 192.255C32.4321 196.974 28.5743 200.835 23.8592 200.835C19.1442 200.835 15.2864 196.974 15.2864 192.255C15.2864 187.536 19.1442 183.675 23.8592 183.675ZM23.8592 181.53C17.9654 181.53 13.1432 186.357 13.1432 192.255C13.1432 198.154 17.9654 202.98 23.8592 202.98C29.753 202.98 34.5753 198.154 34.5753 192.255C34.5753 186.357 29.753 181.53 23.8592 181.53Z" fill="#0B0C0C"/>
<path d="M23.8593 181.53C29.7531 181.53 34.5753 186.357 34.5753 192.255C34.5753 198.154 29.7531 202.98 23.8593 202.98C17.9654 202.98 13.1432 198.154 13.1432 192.255C13.1432 186.357 17.9654 181.53 23.8593 181.53ZM23.8593 179.385C16.7331 179.385 11 185.123 11 192.255C11 199.387 16.7331 205.125 23.8593 205.125C30.9854 205.125 36.7185 199.387 36.7185 192.255C36.7185 185.177 30.9854 179.385 23.8593 179.385Z" fill="#FFDD00"/>
<path d="M23.8592 197.617C26.8184 197.617 29.2173 195.217 29.2173 192.255C29.2173 189.294 26.8184 186.893 23.8592 186.893C20.9001 186.893 18.5012 189.294 18.5012 192.255C18.5012 195.217 20.9001 197.617 23.8592 197.617Z" fill="#0B0C0C"/>
<path d="M13.6791 152.681H32.9679V171.986H13.6791V152.681Z" fill="white"/>
<path d="M31.8963 153.754V170.913H14.7506V153.754H31.8963ZM34.0395 151.609H12.6074V173.058H34.0395V151.609Z" fill="#0B0C0C"/>
<path d="M29.9675 158.955L28.0921 157.078L21.2875 163.888L18.6085 161.207L16.7332 163.138L21.2875 167.696L29.9675 158.955Z" fill="#0B0C0C"/>
<path d="M34.0395 151.609V173.058H12.6074V151.609H34.0395ZM35.6469 150H11V174.667H35.6469V150Z" fill="#FFDD00"/>
<rect x="250.096" y="26.5" width="42.4043" height="64.1064" fill="white" stroke="#0B0C0C"/>
<rect x="249.596" y="26" width="43.4043" height="6.78191" fill="#0B0C0C"/>
<rect x="254.343" y="55.1622" width="14.9202" height="0.678191" fill="#0B0C0C"/>
<rect x="254.343" y="59.2314" width="33.9096" height="0.678191" fill="#0B0C0C"/>
<rect x="254.343" y="64.6569" width="33.9096" height="0.678191" fill="#0B0C0C"/>
<rect x="254.343" y="61.9441" width="33.9096" height="0.678191" fill="#0B0C0C"/>
<rect x="254.343" y="67.3696" width="27.1277" height="0.678191" fill="#0B0C0C"/>
<g clip-path="url(#clip2_683_1863)">
<rect x="254.343" y="36.1729" width="33.9096" height="15.5984" fill="#00823B"/>
</g>
<rect x="179.564" y="26.5" width="42.4043" height="64.1064" fill="white" stroke="#0B0C0C"/>
<rect x="179.064" y="26" width="43.4043" height="6.78191" fill="#0B0C0C"/>
<g filter="url(#filter0_i_683_1863)">
<rect x="183.811" y="76.1862" width="17.633" height="6.78191" fill="#00823B"/>
</g>
<rect x="183.811" y="66.0133" width="33.9096" height="0.678191" fill="#BFC1C3"/>
<rect x="183.811" y="60.5877" width="33.9096" height="0.678191" fill="#BFC1C3"/>
<rect x="183.811" y="55.1622" width="33.9096" height="0.678191" fill="#BFC1C3"/>
<rect x="210.939" y="57.875" width="6.78191" height="0.678191" fill="#005EA5"/>
<rect x="210.939" y="68.726" width="6.78191" height="0.678191" fill="#005EA5"/>
<rect x="210.939" y="63.3005" width="6.78191" height="0.678191" fill="#005EA5"/>
<rect x="183.811" y="57.875" width="5.42553" height="0.678191" fill="#0B0C0C"/>
<rect x="192.628" y="57.875" width="14.9202" height="0.678191" fill="#0B0C0C"/>
<rect x="183.811" y="68.726" width="5.42553" height="0.678191" fill="#0B0C0C"/>
<rect x="192.628" y="68.726" width="14.9202" height="0.678191" fill="#0B0C0C"/>
<rect x="183.811" y="63.3005" width="5.42553" height="0.678191" fill="#0B0C0C"/>
<rect x="192.628" y="63.3005" width="14.9202" height="0.678191" fill="#0B0C0C"/>
<g clip-path="url(#clip3_683_1863)">
<rect x="184" y="39" width="27" height="1" fill="#BFC1C3" stroke="#C8C8C8" stroke-width="2"/>
<rect x="184" y="44" width="18" height="1" fill="#BFC1C3" stroke="#C8C8C8" stroke-width="2"/>
</g>
<rect x="109.032" y="26.5" width="42.4043" height="64.1064" fill="white" stroke="#0B0C0C"/>
<rect x="108.532" y="26" width="43.4043" height="6.78191" fill="#0B0C0C"/>
<g filter="url(#filter1_i_683_1863)">
<rect x="113.279" y="68.726" width="17.633" height="6.78191" fill="#00823B"/>
</g>
<rect x="113.779" y="55.6622" width="32.9096" height="5.78191" fill="white" stroke="#0B0C0C"/>
<rect x="115" y="39" width="27" height="1" fill="#BFC1C3" stroke="#C8C8C8" stroke-width="2"/>
<rect x="115" y="44" width="12" height="1" fill="#BFC1C3" stroke="#C8C8C8" stroke-width="2"/>
<rect x="38.5" y="26.5" width="42.4043" height="64.1064" fill="white" stroke="#0B0C0C"/>
<rect x="38" y="26" width="43.4043" height="6.78191" fill="#0B0C0C"/>
<g filter="url(#filter2_i_683_1863)">
<rect x="42.7474" y="76.8643" width="17.633" height="6.78191" fill="#00823B"/>
</g>
<rect x="51.5638" y="68.0479" width="16.9548" height="0.678191" fill="#0B0C0C"/>
<rect x="43.2474" y="65.1569" width="5.78191" height="5.78191" fill="white" stroke="#0B0C0C"/>
<rect x="51.5638" y="59.2314" width="16.9548" height="0.678191" fill="#0B0C0C"/>
<rect x="43.2474" y="56.3405" width="5.78191" height="5.78191" fill="white" stroke="#0B0C0C"/>
<rect x="44" y="40" width="27" height="1" fill="#BFC1C3" stroke="#C8C8C8" stroke-width="2"/>
<rect x="44" y="45" width="22" height="1" fill="#BFC1C3" stroke="#C8C8C8" stroke-width="2"/>
</g>
<defs>
<filter id="filter0_i_683_1863" x="183.811" y="76.1862" width="17.633" height="6.78192" filterUnits="userSpaceOnUse" color-interpolation-filters="sRGB">
<feFlood flood-opacity="0" result="BackgroundImageFix"/>
<feBlend mode="normal" in="SourceGraphic" in2="BackgroundImageFix" result="shape"/>
<feColorMatrix in="SourceAlpha" type="matrix" values="0 0 0 0 0 0 0 0 0 0 0 0 0 0 0 0 0 0 127 0" result="hardAlpha"/>
<feOffset dy="-1"/>
<feComposite in2="hardAlpha" operator="arithmetic" k2="-1" k3="1"/>
<feColorMatrix type="matrix" values="0 0 0 0 0 0 0 0 0 0.392157 0 0 0 0 0.207843 0 0 0 1 0"/>
<feBlend mode="normal" in2="shape" result="effect1_innerShadow_683_1863"/>
</filter>
<filter id="filter1_i_683_1863" x="113.279" y="68.726" width="17.633" height="6.78192" filterUnits="userSpaceOnUse" color-interpolation-filters="sRGB">
<feFlood flood-opacity="0" result="BackgroundImageFix"/>
<feBlend mode="normal" in="SourceGraphic" in2="BackgroundImageFix" result="shape"/>
<feColorMatrix in="SourceAlpha" type="matrix" values="0 0 0 0 0 0 0 0 0 0 0 0 0 0 0 0 0 0 127 0" result="hardAlpha"/>
<feOffset dy="-1"/>
<feComposite in2="hardAlpha" operator="arithmetic" k2="-1" k3="1"/>
<feColorMatrix type="matrix" values="0 0 0 0 0 0 0 0 0 0.392157 0 0 0 0 0.207843 0 0 0 1 0"/>
<feBlend mode="normal" in2="shape" result="effect1_innerShadow_683_1863"/>
</filter>
<filter id="filter2_i_683_1863" x="42.7474" y="76.8643" width="17.633" height="6.78192" filterUnits="userSpaceOnUse" color-interpolation-filters="sRGB">
<feFlood flood-opacity="0" result="BackgroundImageFix"/>
<feBlend mode="normal" in="SourceGraphic" in2="BackgroundImageFix" result="shape"/>
<feColorMatrix in="SourceAlpha" type="matrix" values="0 0 0 0 0 0 0 0 0 0 0 0 0 0 0 0 0 0 127 0" result="hardAlpha"/>
<feOffset dy="-1"/>
<feComposite in2="hardAlpha" operator="arithmetic" k2="-1" k3="1"/>
<feColorMatrix type="matrix" values="0 0 0 0 0 0 0 0 0 0.392157 0 0 0 0 0.207843 0 0 0 1 0"/>
<feBlend mode="normal" in2="shape" result="effect1_innerShadow_683_1863"/>
</filter>
<clipPath id="clip0_683_1863">
<rect width="327" height="259" fill="white"/>
</clipPath>
<clipPath id="clip1_683_1863">
<rect width="77" height="22" fill="white" transform="translate(105 157)"/>
</clipPath>
<clipPath id="clip2_683_1863">
<rect width="33.9096" height="15.5984" fill="white" transform="translate(254.343 36.1729)"/>
</clipPath>
<clipPath id="clip3_683_1863">
<rect width="33.9096" height="14.9202" fill="white" transform="translate(183.811 36.1729)"/>
</clipPath>
</defs>
</svg>
